<?xml version="1.0" encoding="UTF-8" standalone="no"?>
<!-- Created with Inkscape (http://www.inkscape.org/) -->

<svg
   xmlns:dc="http://purl.org/dc/elements/1.1/"
   xmlns:cc="http://creativecommons.org/ns#"
   xmlns:rdf="http://www.w3.org/1999/02/22-rdf-syntax-ns#"
   xmlns:svg="http://www.w3.org/2000/svg"
   xmlns="http://www.w3.org/2000/svg"
   xmlns:sodipodi="http://sodipodi.sourceforge.net/DTD/sodipodi-0.dtd"
   xmlns:inkscape="http://www.inkscape.org/namespaces/inkscape"
   width="687.85803mm"
   height="141.17767mm"
   viewBox="0 0 687.85803 141.17767"
   version="1.1"
   id="svg82383"
   inkscape:version="0.92.2 (5c3e80d, 2017-08-06)"
   sodipodi:docname="logo_blanco_curvas.svg">
  <defs
     id="defs82377" />
  <sodipodi:namedview
     id="base"
     pagecolor="#ffffff"
     bordercolor="#666666"
     borderopacity="1.0"
     inkscape:pageopacity="0.0"
     inkscape:pageshadow="2"
     inkscape:zoom="0.35"
     inkscape:cx="1222.7464"
     inkscape:cy="663.93511"
     inkscape:document-units="mm"
     inkscape:current-layer="layer1"
     showgrid="false"
     inkscape:window-width="1920"
     inkscape:window-height="1043"
     inkscape:window-x="1920"
     inkscape:window-y="0"
     inkscape:window-maximized="1" />
  <metadata
     id="metadata82380">
    <rdf:RDF>
      <cc:Work
         rdf:about="">
        <dc:format>image/svg+xml</dc:format>
        <dc:type
           rdf:resource="http://purl.org/dc/dcmitype/StillImage" />
        <dc:title></dc:title>
      </cc:Work>
    </rdf:RDF>
  </metadata>
  <g
     inkscape:label="Capa 1"
     inkscape:groupmode="layer"
     id="layer1"
     transform="translate(-35.559074,-54.053973)">
    <g
       id="g163517">
      <path
         inkscape:connector-curvature="0"
         style="color:#000000;font-style:normal;font-variant:normal;font-weight:normal;font-stretch:normal;font-size:medium;line-height:normal;font-family:sans-serif;font-variant-ligatures:normal;font-variant-position:normal;font-variant-caps:normal;font-variant-numeric:normal;font-variant-alternates:normal;font-feature-settings:normal;text-indent:0;text-align:start;text-decoration:none;text-decoration-line:none;text-decoration-style:solid;text-decoration-color:#000000;letter-spacing:normal;word-spacing:normal;text-transform:none;writing-mode:lr-tb;direction:ltr;text-orientation:mixed;dominant-baseline:auto;baseline-shift:baseline;text-anchor:start;white-space:normal;shape-padding:0;clip-rule:nonzero;display:inline;overflow:visible;visibility:visible;opacity:1;isolation:auto;mix-blend-mode:normal;color-interpolation:sRGB;color-interpolation-filters:linearRGB;solid-color:#000000;solid-opacity:1;vector-effect:none;fill:#ffffff;fill-opacity:1;fill-rule:nonzero;stroke:none;stroke-width:5.3719697;stroke-linecap:butt;stroke-linejoin:miter;stroke-miterlimit:4;stroke-dasharray:none;stroke-dashoffset:0;stroke-opacity:1;marker:none;marker-start:none;marker-mid:none;marker-end:none;paint-order:markers fill stroke;color-rendering:auto;image-rendering:auto;shape-rendering:auto;text-rendering:auto;enable-background:accumulate"
         d="m 382.94471,100.62448 c -2.74193,0 -5.3379,0.52868 -7.74974,1.58142 -2.39238,1.0456 -4.51355,2.47821 -6.33068,4.29409 -1.77591,1.77644 -3.18319,3.87513 -4.227,6.26359 -1.05452,2.41433 -1.58124,5.03243 -1.58124,7.81647 v 28.09839 h 7.1809 v -20.20591 h 49.49104 v -7.18108 h -49.49104 v -0.7114 c 0,-1.81267 0.32867,-3.46046 0.97619,-4.97694 0.65234,-1.53199 1.55787,-2.85684 2.73622,-3.99468 v 0 0 c 1.18923,-1.18906 2.54672,-2.11421 4.08479,-2.79028 1.51861,-0.66769 3.13715,-1.00617 4.89789,-1.00617 h 39.7668 v -7.17466 z"
         id="path6758" />
      <path
         inkscape:connector-curvature="0"
         style="color:#000000;font-style:normal;font-variant:normal;font-weight:normal;font-stretch:normal;font-size:medium;line-height:normal;font-family:sans-serif;font-variant-ligatures:normal;font-variant-position:normal;font-variant-caps:normal;font-variant-numeric:normal;font-variant-alternates:normal;font-feature-settings:normal;text-indent:0;text-align:start;text-decoration:none;text-decoration-line:none;text-decoration-style:solid;text-decoration-color:#000000;letter-spacing:normal;word-spacing:normal;text-transform:none;writing-mode:lr-tb;direction:ltr;text-orientation:mixed;dominant-baseline:auto;baseline-shift:baseline;text-anchor:start;white-space:normal;shape-padding:0;clip-rule:nonzero;display:inline;overflow:visible;visibility:visible;opacity:1;isolation:auto;mix-blend-mode:normal;color-interpolation:sRGB;color-interpolation-filters:linearRGB;solid-color:#000000;solid-opacity:1;vector-effect:none;fill:#ffffff;fill-opacity:1;fill-rule:nonzero;stroke:none;stroke-width:5.3719697;stroke-linecap:butt;stroke-linejoin:miter;stroke-miterlimit:4;stroke-dasharray:none;stroke-dashoffset:0;stroke-opacity:1;marker:none;marker-start:none;marker-mid:none;marker-end:none;paint-order:markers fill stroke;color-rendering:auto;image-rendering:auto;shape-rendering:auto;text-rendering:auto;enable-background:accumulate"
         d="m 434.80155,100.62448 v 1.07272 27.09222 c 0,2.74354 0.53119,5.33915 1.58124,7.74992 1.04382,2.39113 2.48339,4.50874 4.29855,6.32372 1.77538,1.77716 3.8705,3.18997 6.25914,4.23396 2.41379,1.05452 5.03136,1.58142 7.81433,1.58142 h 18.75135 c 2.74139,0 5.33737,-0.52797 7.74991,-1.58142 2.38668,-1.04417 4.47627,-2.45127 6.25272,-4.22753 1.81712,-1.81606 3.25348,-3.93795 4.29926,-6.33015 1.05202,-2.41184 1.58053,-5.00692 1.58053,-7.74992 v -28.16494 h -7.1809 v 28.29805 c 0,1.71525 -0.33509,3.31326 -1.00581,4.83277 v 0 c -0.67393,1.53842 -1.58874,2.86594 -2.74889,4.00575 -1.16407,1.14284 -2.51961,2.04516 -4.08372,2.72533 -1.54502,0.66893 -3.15606,1.00617 -4.86935,1.00617 h -18.88285 c -1.75896,0 -3.38124,-0.33634 -4.89736,-1.00135 -1.53503,-0.67643 -2.86076,-1.59338 -4.00129,-2.75389 -1.1432,-1.16478 -2.0523,-2.51264 -2.73122,-4.07854 -0.66965,-1.54681 -1.00652,-3.16249 -1.00652,-4.87399 v -28.16673 z"
         id="path6760" />
      <path
         inkscape:connector-curvature="0"
         style="color:#000000;font-style:normal;font-variant:normal;font-weight:normal;font-stretch:normal;font-size:medium;line-height:normal;font-family:sans-serif;font-variant-ligatures:normal;font-variant-position:normal;font-variant-caps:normal;font-variant-numeric:normal;font-variant-alternates:normal;font-feature-settings:normal;text-indent:0;text-align:start;text-decoration:none;text-decoration-line:none;text-decoration-style:solid;text-decoration-color:#000000;letter-spacing:normal;word-spacing:normal;text-transform:none;writing-mode:lr-tb;direction:ltr;text-orientation:mixed;dominant-baseline:auto;baseline-shift:baseline;text-anchor:start;white-space:normal;shape-padding:0;clip-rule:nonzero;display:inline;overflow:visible;visibility:visible;opacity:1;isolation:auto;mix-blend-mode:normal;color-interpolation:sRGB;color-interpolation-filters:linearRGB;solid-color:#000000;solid-opacity:1;vector-effect:none;fill:#ffffff;fill-opacity:1;fill-rule:nonzero;stroke:none;stroke-width:5.3719697;stroke-linecap:butt;stroke-linejoin:miter;stroke-miterlimit:4;stroke-dasharray:none;stroke-dashoffset:0;stroke-opacity:1;marker:none;marker-start:none;marker-mid:none;marker-end:none;paint-order:markers fill stroke;color-rendering:auto;image-rendering:auto;shape-rendering:auto;text-rendering:auto;enable-background:accumulate"
         d="m 527.03346,100.62448 c -2.69964,0 -5.27421,0.52922 -7.68354,1.58142 -2.38917,1.04417 -4.50143,2.46518 -6.31784,4.25751 -1.81891,1.79714 -3.26045,3.90743 -4.30622,6.30017 -1.05327,2.41273 -1.58,5.00781 -1.58,7.74992 v 8.27592 c 0,2.70089 0.53119,5.27617 1.58,7.68497 1.04381,2.3906 2.47089,4.50731 4.26375,6.32373 1.79501,1.81837 3.90155,3.25277 6.29518,4.2989 2.41255,1.05345 5.00602,1.58142 7.74867,1.58142 h 39.83121 v -7.17947 h -39.83121 c -1.714,0 -3.33128,-0.33634 -4.87399,-1.00634 -1.56715,-0.67947 -2.91447,-1.58125 -4.07908,-2.72534 -1.15943,-1.13856 -2.0705,-2.47054 -2.74889,-4.00717 v 0 c -0.66518,-1.5204 -0.99956,-3.12306 -0.99956,-4.83438 v -0.64663 h 52.53273 v -7.17947 h -52.53273 v -0.58168 c 0,-1.76556 0.32242,-3.39052 0.96923,-4.91021 0.65359,-1.53467 1.56858,-2.88485 2.75585,-4.07248 1.18602,-1.1862 2.53209,-2.10154 4.06587,-2.75531 1.51987,-0.64859 3.14465,-0.97619 4.91057,-0.97619 h 39.83121 v -7.17465 z"
         id="path6762" />
      <path
         inkscape:connector-curvature="0"
         style="color:#000000;font-style:normal;font-variant:normal;font-weight:normal;font-stretch:normal;font-size:medium;line-height:normal;font-family:sans-serif;font-variant-ligatures:normal;font-variant-position:normal;font-variant-caps:normal;font-variant-numeric:normal;font-variant-alternates:normal;font-feature-settings:normal;text-indent:0;text-align:start;text-decoration:none;text-decoration-line:none;text-decoration-style:solid;text-decoration-color:#000000;letter-spacing:normal;word-spacing:normal;text-transform:none;writing-mode:lr-tb;direction:ltr;text-orientation:mixed;dominant-baseline:auto;baseline-shift:baseline;text-anchor:start;white-space:normal;shape-padding:0;clip-rule:nonzero;display:inline;overflow:visible;visibility:visible;opacity:1;isolation:auto;mix-blend-mode:normal;color-interpolation:sRGB;color-interpolation-filters:linearRGB;solid-color:#000000;solid-opacity:1;vector-effect:none;fill:#ffffff;fill-opacity:1;fill-rule:nonzero;stroke:none;stroke-width:5.3719697;stroke-linecap:butt;stroke-linejoin:miter;stroke-miterlimit:4;stroke-dasharray:none;stroke-dashoffset:0;stroke-opacity:1;marker:none;marker-start:none;marker-mid:none;marker-end:none;paint-order:markers fill stroke;color-rendering:auto;image-rendering:auto;shape-rendering:auto;text-rendering:auto;enable-background:accumulate"
         d="m 600.70101,100.62448 c -2.74336,0 -5.33666,0.52868 -7.74867,1.58142 -2.39292,1.04613 -4.50018,2.48178 -6.29518,4.30051 -1.79554,1.81766 -3.21477,3.93527 -4.25733,6.32373 -1.05523,2.41112 -1.58196,4.98407 -1.58196,7.68336 v 8.27592 c 0,2.74354 0.53119,5.3388 1.58196,7.74992 1.0431,2.39149 2.48214,4.4991 4.2998,6.29375 0,0 0,0 0,0 1.81391,1.78893 3.92367,3.2153 6.31159,4.25911 2.41005,1.05238 4.98265,1.57982 7.68283,1.57982 h 22.39292 c 2.7414,0 5.33737,-0.52672 7.74992,-1.57982 2.39185,-1.04595 4.50285,-2.4816 6.30017,-4.30033 1.7925,-1.81659 3.2137,-3.93437 4.25751,-6.3239 1.05398,-2.41023 1.58124,-4.98265 1.58124,-7.68337 v -7.89408 h -28.11088 v 7.17483 h 20.93623 v 0.85076 c 0,1.71542 -0.33509,3.31219 -1.00652,4.83294 v 0 c -0.67393,1.53735 -1.58874,2.86576 -2.74889,4.00557 -1.1639,1.14284 -2.51943,2.04534 -4.08301,2.72534 -1.54823,0.67071 -3.16177,1.00634 -4.87577,1.00634 H 600.5695 c -1.71649,0 -3.3179,-0.33134 -4.83972,-0.99974 -1.53503,-0.67679 -2.86023,-1.59516 -3.99879,-2.75567 -1.1457,-1.16372 -2.04605,-2.51175 -2.72569,-4.07855 -0.66947,-1.54662 -1.00581,-3.1623 -1.00581,-4.87398 v -8.41528 c 0,-1.71435 0.32867,-3.31344 0.99956,-4.83295 v 0 c 0.67322,-1.53628 1.58749,-2.85737 2.7496,-3.99932 1.16265,-1.14195 2.51997,-2.05158 4.08408,-2.73158 1.54716,-0.67107 3.15624,-1.00616 4.86828,-1.00616 h 28.90114 v -7.17484 z"
         id="path6764" />
      <path
         inkscape:connector-curvature="0"
         id="path6766"
         style="color:#000000;font-style:normal;font-variant:normal;font-weight:normal;font-stretch:normal;font-size:medium;line-height:normal;font-family:sans-serif;font-variant-ligatures:normal;font-variant-position:normal;font-variant-caps:normal;font-variant-numeric:normal;font-variant-alternates:normal;font-feature-settings:normal;text-indent:0;text-align:start;text-decoration:none;text-decoration-line:none;text-decoration-style:solid;text-decoration-color:#000000;letter-spacing:normal;word-spacing:normal;text-transform:none;writing-mode:lr-tb;direction:ltr;text-orientation:mixed;dominant-baseline:auto;baseline-shift:baseline;text-anchor:start;white-space:normal;shape-padding:0;clip-rule:nonzero;display:inline;overflow:visible;visibility:visible;opacity:1;isolation:auto;mix-blend-mode:normal;color-interpolation:sRGB;color-interpolation-filters:linearRGB;solid-color:#000000;solid-opacity:1;vector-effect:none;fill:#ffffff;fill-opacity:1;fill-rule:nonzero;stroke:none;stroke-width:5.3719697;stroke-linecap:butt;stroke-linejoin:miter;stroke-miterlimit:4;stroke-dasharray:none;stroke-dashoffset:0;stroke-opacity:1;marker:none;marker-start:none;marker-mid:none;marker-end:none;paint-order:markers fill stroke;color-rendering:auto;image-rendering:auto;shape-rendering:auto;text-rendering:auto;enable-background:accumulate"
         d="m 669.41695,107.79931 v 0 h 34.05134 c 1.76075,0 3.39766,0.33688 4.94019,1.00617 1.56036,0.67678 2.91589,1.59694 4.07854,2.76013 1.16461,1.16371 2.07817,2.50176 2.75531,4.0375 0.66572,1.51897 1.0001,3.14929 1.0001,4.91039 v 8.27592 c 0,1.76378 -0.33509,3.38142 -1.0001,4.89932 v 0 c -0.67339,1.53682 -1.5882,2.87576 -2.75531,4.04215 -1.16265,1.16283 -2.51818,2.07853 -4.07854,2.75549 -1.54074,0.66947 -3.17694,1.00617 -4.94019,1.00617 h -34.05134 c -1.76199,0 -3.38302,-0.33367 -4.89986,-1.00135 -1.53824,-0.67607 -2.8811,-1.59427 -4.04821,-2.76031 -1.16318,-1.16372 -2.07228,-2.5039 -2.74942,-4.04215 v 0 c -0.66519,-1.51879 -1.00599,-3.14018 -1.00599,-4.89932 v -8.27592 c 0,-1.76164 0.32885,-3.38749 1.00153,-4.90414 v 0 c 0.67393,-1.53807 1.58178,-2.87201 2.74764,-4.03733 1.16711,-1.1664 2.50925,-2.08406 4.04821,-2.76013 1.51915,-0.66786 3.13965,-1.00634 4.89968,-1.00634 z m 0,-7.17483 c -2.74335,0 -5.3404,0.52797 -7.74991,1.58142 -2.39239,1.04488 -4.49393,2.46286 -6.28947,4.25751 -1.79732,1.79803 -3.2244,3.91742 -4.26822,6.33033 -1.05255,2.43146 -1.57482,5.02101 -1.57482,7.71976 v 8.27592 c 0,2.74175 0.51834,5.33576 1.57482,7.74992 1.04382,2.39185 2.47268,4.49839 4.26822,6.29375 1.79554,1.795 3.89583,3.21869 6.28947,4.26393 2.40951,1.05363 5.00656,1.58142 7.74991,1.58142 h 34.05134 c 2.7439,0 5.34736,-0.52351 7.77954,-1.57517 2.41201,-1.04453 4.52622,-2.47304 6.32426,-4.27018 1.79304,-1.79465 3.22619,-3.90083 4.27,-6.29375 1.05398,-2.41291 1.575,-5.00727 1.575,-7.74992 v -8.27592 c 0,-2.69839 -0.51852,-5.28723 -1.575,-7.71976 -1.04381,-2.41398 -2.47518,-4.53301 -4.27,-6.33033 -1.79875,-1.79679 -3.91992,-3.21959 -6.33051,-4.26376 -2.43217,-1.0522 -5.03582,-1.57517 -7.77971,-1.57517 z" />
      <path
         style="color:#000000;font-style:normal;font-variant:normal;font-weight:normal;font-stretch:normal;font-size:medium;line-height:normal;font-family:sans-serif;font-variant-ligatures:normal;font-variant-position:normal;font-variant-caps:normal;font-variant-numeric:normal;font-variant-alternates:normal;font-feature-settings:normal;text-indent:0;text-align:start;text-decoration:none;text-decoration-line:none;text-decoration-style:solid;text-decoration-color:#000000;letter-spacing:normal;word-spacing:normal;text-transform:none;writing-mode:lr-tb;direction:ltr;text-orientation:mixed;dominant-baseline:auto;baseline-shift:baseline;text-anchor:start;white-space:normal;shape-padding:0;clip-rule:nonzero;display:inline;overflow:visible;visibility:visible;opacity:1;isolation:auto;mix-blend-mode:normal;color-interpolation:sRGB;color-interpolation-filters:linearRGB;solid-color:#000000;solid-opacity:1;vector-effect:none;fill:#ffffff;fill-opacity:1;fill-rule:nonzero;stroke:none;stroke-width:5.3719697;stroke-linecap:butt;stroke-linejoin:miter;stroke-miterlimit:4;stroke-dasharray:none;stroke-dashoffset:0;stroke-opacity:1;color-rendering:auto;image-rendering:auto;shape-rendering:auto;text-rendering:auto;enable-background:accumulate"
         d="m 210.58896,100.62341 v 1.07307 6.1014 h 26.17224 v 40.88146 h 7.1784 v -40.88146 h 26.17189 v -7.17447 z m 67.61735,0 1.30022,1.71917 35.04216,46.33676 h 2.0523 1.78982 l 36.75349,-48.05593 h -9.05799 l -29.61058,38.78615 -29.28549,-38.78615 z"
         id="path6768"
         inkscape:connector-curvature="0" />
      <path
         style="color:#000000;display:inline;overflow:visible;opacity:1;vector-effect:none;fill:#ffffff;fill-opacity:1;stroke:none;stroke-width:1.14091861;stroke-linecap:butt;stroke-linejoin:miter;stroke-miterlimit:4;stroke-dasharray:none;stroke-dashoffset:0;stroke-opacity:1;marker:none;marker-start:none;marker-mid:none;marker-end:none;paint-order:markers fill stroke"
         d="m 106.1364,54.075384 c -39.100189,0 -70.577326,31.478743 -70.577326,70.578756 0,39.10036 31.477137,70.5775 70.577326,70.5775 39.10019,0 70.57804,-31.47714 70.57804,-70.5775 V 93.775274 54.075384 h -39.69918 z m 0,23.525953 h 20.58632 26.46576 v 26.466473 20.58561 c 0,26.06679 -20.98529,47.05137 -47.05208,47.05137 -26.066615,0 -47.051372,-20.98458 -47.051372,-47.05137 0,-26.066611 20.984757,-47.052083 47.051372,-47.052083 z"
         id="path6786"
         inkscape:connector-curvature="0" />
      <path
         style="color:#000000;display:inline;overflow:visible;opacity:1;vector-effect:none;fill:#ffffff;fill-opacity:1;stroke:none;stroke-width:0.87435555;stroke-linecap:butt;stroke-linejoin:miter;stroke-miterlimit:4;stroke-dasharray:none;stroke-dashoffset:0;stroke-opacity:1;marker:none;marker-start:none;marker-mid:none;marker-end:none;paint-order:markers fill stroke"
         d="m 109.73336,54.069674 c -32.037225,0 -57.828164,26.382434 -57.828164,59.152296 0,23.88781 13.706254,44.37778 33.544958,53.73196 -0.01784,0 -0.01963,-0.0179 -0.03212,-0.0179 -0.472839,-0.23142 -0.941038,-0.4698 -1.404599,-0.71586 0,0 -0.01963,-0.0178 -0.02498,-0.0178 -0.939789,-0.50014 -1.859951,-1.03079 -2.760129,-1.59141 -0.02498,-0.0196 -0.04996,-0.0321 -0.07851,-0.05 -0.899642,-0.56258 -1.778944,-1.15497 -2.63612,-1.77573 -0.01784,0 -0.01963,-0.0178 -0.03212,-0.0196 -0.425555,-0.30851 -0.846114,-0.62326 -1.260784,-0.94586 0,0 -0.01784,-0.0178 -0.01963,-0.0178 -0.422343,-0.32885 -0.838797,-0.66501 -1.249364,-1.00795 0,-10e-4 0,0 0,0 -0.389512,-0.32564 -0.773671,-0.65805 -1.152477,-0.99582 -0.03212,-0.0321 -0.0678,-0.0625 -0.101705,-0.091 -0.763144,-0.68428 -1.502914,-1.39353 -2.219487,-2.12617 -0.04461,-0.0446 -0.08921,-0.091 -0.133822,-0.1356 -0.714433,-0.73602 -1.404777,-1.49524 -2.069963,-2.27712 -0.02498,-0.0321 -0.0571,-0.066 -0.08386,-0.0999 -0.328668,-0.3888 -0.652874,-0.78206 -0.96923,-1.18174 0,0 0,0 -0.01784,-0.0179 -0.323136,-0.40771 -0.6386,-0.82184 -0.948175,-1.2408 -0.03212,-0.0375 -0.0571,-0.0803 -0.08565,-0.11954 -0.275495,-0.3756 -0.545459,-0.75512 -0.809892,-1.13892 -0.03747,-0.05 -0.07316,-0.10349 -0.108842,-0.15702 -0.286915,-0.42038 -0.569012,-0.84558 -0.842545,-1.27577 -0.01784,-0.025 -0.03212,-0.05 -0.04461,-0.0749 -0.249624,-0.39451 -0.49318,-0.79348 -0.731384,-1.19584 -0.04996,-0.0821 -0.09814,-0.16594 -0.146312,-0.24855 -0.500138,-0.85628 -0.974405,-1.7297 -1.421014,-2.6197 -0.04461,-0.0928 -0.091,-0.18539 -0.137391,-0.27764 -0.197878,-0.40075 -0.390226,-0.80383 -0.57722,-1.21082 -0.01963,-0.05 -0.04461,-0.0946 -0.0678,-0.14275 -0.204302,-0.44946 -0.400218,-0.90303 -0.590602,-1.35981 -0.04461,-0.0999 -0.08208,-0.20234 -0.124901,-0.30351 -0.15345,-0.37809 -0.304044,-0.75815 -0.448929,-1.14106 -0.03747,-0.0981 -0.07494,-0.19716 -0.112411,-0.29637 -0.171292,-0.46088 -0.335626,-0.92444 -0.492466,-1.39193 -0.02498,-0.0714 -0.04461,-0.14631 -0.07137,-0.21804 -0.133822,-0.40521 -0.261042,-0.81346 -0.383802,-1.22367 -0.03747,-0.11955 -0.07137,-0.24035 -0.107058,-0.36096 -0.137391,-0.47552 -0.271213,-0.95246 -0.394508,-1.43386 -0.124901,-0.48498 -0.238382,-0.9737 -0.347759,-1.46456 -0.02498,-0.12311 -0.0571,-0.24837 -0.08208,-0.37238 -0.08922,-0.41717 -0.173077,-0.83701 -0.251764,-1.25864 -0.01784,-0.0785 -0.03212,-0.15523 -0.04461,-0.23517 -0.08743,-0.48801 -0.165939,-0.97905 -0.240166,-1.47222 -0.01963,-0.12847 -0.03747,-0.2573 -0.0571,-0.3863 -0.0571,-0.40647 -0.108843,-0.81454 -0.155234,-1.22439 -0.01784,-0.11063 -0.02498,-0.21875 -0.03747,-0.32938 -0.0571,-0.50906 -0.09992,-1.02044 -0.139175,-1.53432 0,-0.0785 0,-0.15702 -0.01784,-0.23588 -0.03212,-0.43234 -0.04996,-0.86699 -0.07137,-1.30272 0,-0.14809 -0.01784,-0.2953 -0.01963,-0.44322 -0.01963,-0.51084 -0.02498,-1.0224 -0.02498,-1.53699 0,-1.62906 0.08208,-3.23832 0.242308,-4.82367 0,-1.8e-4 -1.79e-4,-3.5e-4 0,-7.1e-4 0.199662,-1.98164 0.522085,-3.92652 0.958702,-5.82644 0,-1.8e-4 -1.78e-4,-3.6e-4 0,-7.2e-4 0.08743,-0.38005 0.179501,-0.75779 0.275674,-1.13392 0,-3.5e-4 -1.78e-4,-5.3e-4 0,-8.9e-4 0.192704,-0.75262 0.403251,-1.49774 0.631463,-2.23501 1.78e-4,-1.8e-4 0,-3.6e-4 0,-7.1e-4 0.342763,-1.10645 0.725316,-2.19451 1.14534,-3.26366 0.280134,-0.71301 0.57722,-1.41763 0.890364,-2.11279 2.349919,-5.21371 5.620178,-9.916405 9.606654,-13.903059 0.53172,-0.531721 1.076109,-1.050059 1.632453,-1.55555 1.669567,-1.516831 3.449046,-2.914471 5.325769,-4.180429 0.625218,-0.42163 1.262212,-0.829341 1.909019,-1.22153 1.29308,-0.784198 2.627734,-1.508444 3.999502,-2.167564 0.342585,-0.164155 0.688738,-0.325634 1.036319,-0.482295 4.865778,-2.193258 10.177094,-3.584474 15.767119,-4.007352 0.3995,-0.03212 0.80025,-0.0571 1.20226,-0.07494 0.80418,-0.03747 1.61371,-0.06245 2.42825,-0.06245 h 20.5865 26.46576 23.28579 V 54.053973 H 135.01685 Z M 92.161251,169.61003 c 5.487248,1.77948 4.380984,1.35517 0,0 z"
         id="path6788"
         inkscape:connector-curvature="0"
         sodipodi:nodetypes="sscccccccccccccccccccccccccccccccccccccccccccccccccccccsccccccccccscccccccscccccscc" />
      <path
         style="color:#000000;display:inline;overflow:visible;opacity:1;vector-effect:none;fill:#ffffff;fill-opacity:1;stroke:none;stroke-width:0.8685894;stroke-linecap:butt;stroke-linejoin:miter;stroke-miterlimit:4;stroke-dasharray:none;stroke-dashoffset:0;stroke-opacity:1;marker:none;marker-start:none;marker-mid:none;marker-end:none;paint-order:markers fill stroke"
         d="m 153.18848,54.075384 v 23.525953 26.466473 20.58561 c 0,0.45714 0,0.91178 -0.0196,1.36552 0,0.16416 -0.0178,0.32939 -0.0196,0.49426 -0.0178,0.30225 -0.025,0.6038 -0.0446,0.90463 0,0.16594 -0.0196,0.33063 -0.0321,0.49568 -0.0196,0.32492 -0.05,0.64859 -0.0767,0.97155 -0.0178,0.13025 -0.0196,0.25926 -0.0321,0.38826 -0.0446,0.44001 -0.0892,0.87895 -0.14453,1.31557 0,0.0178 0,0.025 0,0.0375 -1.7e-4,0.002 0,0 0,0 -0.0571,0.46409 -0.1249,0.92569 -0.19609,1.3855 -0.0178,0.0839 -0.0321,0.16951 -0.0446,0.25284 -0.0571,0.37113 -0.12311,0.74084 -0.19217,1.10894 -0.0196,0.10706 -0.0375,0.21501 -0.0624,0.32188 -0.0696,0.35526 -0.14096,0.70855 -0.21804,1.06059 -0.0196,0.10171 -0.0446,0.2018 -0.066,0.3028 -0.0964,0.42805 -0.19663,0.85485 -0.30422,1.27862 0,0 0,0.0196 0,0.025 14.77826,-6.82779 24.98551,-21.75807 24.98551,-39.162813 V 78.329152 54.068069 Z"
         id="path6790"
         inkscape:connector-curvature="0" />
      <path
         style="color:#000000;display:inline;overflow:visible;opacity:1;vector-effect:none;fill:#ffffff;fill-opacity:1;stroke:none;stroke-width:1.13807583;stroke-linecap:butt;stroke-linejoin:miter;stroke-miterlimit:4;stroke-dasharray:none;stroke-dashoffset:0;stroke-opacity:1;marker:none;marker-start:none;marker-mid:none;marker-end:none;paint-order:markers fill stroke"
         d="m 145.34614,54.075384 c -0.31546,0 -0.63039,0 -0.94371,0.01784 -0.0946,0 -0.18842,0 -0.28263,0.01784 -0.23214,0 -0.46285,0.01963 -0.69303,0.03212 -0.0928,0 -0.18521,0.01784 -0.27763,0.01963 -0.2573,0.01963 -0.51406,0.03747 -0.76921,0.06245 -0.0571,0 -0.11063,0.01784 -0.16594,0.01784 -0.31368,0.03212 -0.62718,0.06602 -0.93819,0.107058 -0.0625,0 -0.12133,0.01963 -0.18199,0.02498 -0.24731,0.03212 -0.4939,0.06959 -0.73942,0.107058 -0.0892,0.01784 -0.17664,0.03212 -0.2655,0.04461 -0.23838,0.03747 -0.47676,0.08208 -0.713,0.12847 -0.0678,0.01784 -0.13561,0.02498 -0.20234,0.03747 -0.62272,0.123116 -1.23884,0.264968 -1.84764,0.424841 -0.0321,0 -0.0696,0.01963 -0.10349,0.02498 -0.27443,0.07316 -0.54689,0.149881 -0.81846,0.230174 -0.0446,0.01784 -0.0839,0.02498 -0.1249,0.03747 -0.92088,0.275673 -1.82409,0.5931 -2.70678,0.948889 -0.0196,0 -0.0446,0.01963 -0.066,0.02498 -0.28887,0.117763 -0.57525,0.238382 -0.85967,0.364175 0,0.0011 0,0 0,0 -0.89465,0.395222 -1.76628,0.829876 -2.61417,1.303607 -7.38574,4.125294 -12.90993,11.151141 -15.05911,19.556428 h 11.75994 26.46558 v -0.03212 c 0,0 0,0 0,0 13.0193,0 23.50115,-10.477391 23.50972,-23.49455 h -23.51828 z"
         id="path6792"
         inkscape:connector-curvature="0" />
      <path
         inkscape:connector-curvature="0"
         id="path6794"
         d="m 106.13658,107.00851 c -9.774916,0 -17.6442,7.86964 -17.6442,17.64456 0,9.77509 7.869284,17.64437 17.6442,17.64437 9.77509,0 17.64455,-7.86928 17.64455,-17.64437 v -7.71959 -9.92497 h -9.92479 z"
         style="color:#000000;display:inline;overflow:visible;opacity:1;vector-effect:none;fill:#ffffff;fill-opacity:1;stroke:none;stroke-width:1.14091861;stroke-linecap:butt;stroke-linejoin:miter;stroke-miterlimit:4;stroke-dasharray:none;stroke-dashoffset:0;stroke-opacity:1;marker:none;marker-start:none;marker-mid:none;marker-end:none;paint-order:markers fill stroke" />
    </g>
  </g>
</svg>
